<svg xmlns="http://www.w3.org/2000/svg" data-name="Layer 1" viewBox="0 0 64 80" x="0px" y="0px"><title>crab-claw-shell-animal-aquatic-cuisine</title><path d="M34.972,29.382l3.589,2.87,5.594-12.9a9.554,9.554,0,0,0-1.228-9.638l-8.9,18.911Z"/><polygon points="42.986 54 41.5 54 37 60 42.907 60 42.986 54"/><polygon points="39.776 52.964 35.952 47.191 27.225 47.191 35.059 59.255 39.776 52.964"/><path d="M25.821,45.191h10.04a22.492,22.492,0,0,0,2.1-9.455v-1.4l-5.8-4.636a.962.962,0,0,1-.2-.224.716.716,0,0,1-.046-.08.957.957,0,0,1-.082-.2c-.008-.029-.018-.057-.024-.086a1,1,0,0,1-.019-.29v-.009l2.358-24.77A14.756,14.756,0,0,0,24.037,9.159L22.776,10.63A24,24,0,0,0,23.342,42.5ZM28.739,7.785,29.761,9.5a10.761,10.761,0,0,0-2.686,2.259l-1.519-1.3A12.75,12.75,0,0,1,28.739,7.785ZM24.3,11.932l1.517,1.3a20.068,20.068,0,0,0-2.774,4.217l-1.8-.881A21.991,21.991,0,0,1,24.3,11.932ZM19,23h2v2H19Zm0,4h2v2H19Zm4,6H21V31h2Zm0-8h2v2H23Z"/><text x="0" y="79" fill="#000000" font-size="5px" font-weight="bold" font-family="'Helvetica Neue', Helvetica, Arial-Unicode, Arial, Sans-serif">Created by Turkkub</text><text x="0" y="84" fill="#410FF8" font-size="5px" font-weight="bold" font-family="'Helvetica Neue', Helvetica, Arial-Unicode, Arial, Sans-serif">from the Noun Project</text></svg>